<?xml version="1.0" standalone="no"?>
<!DOCTYPE svg PUBLIC "-//W3C//DTD SVG 20010904//EN"
 "http://www.w3.org/TR/2001/REC-SVG-20010904/DTD/svg10.dtd">
<svg version="1.0" xmlns="http://www.w3.org/2000/svg"
 width="512.000000pt" height="512.000000pt" viewBox="0 0 512.000000 512.000000"
 preserveAspectRatio="xMidYMid meet">
<metadata>
Created by potrace 1.14, written by Peter Selinger 2001-2017
</metadata>
<g transform="translate(0.000000,512.000000) scale(0.100000,-0.100000)"
fill="#000000" stroke="none">
<path d="M569 4963 c-1 -76 -3 -176 -4 -223 -4 -94 -12 -410 -20 -740 -6 -274
-15 -602 -20 -800 -2 -85 -7 -254 -10 -375 -5 -211 -8 -309 -20 -750 -3 -110
-8 -282 -10 -382 l-5 -183 38 6 c20 3 46 7 57 8 23 4 146 25 190 32 17 3 37 7
45 9 8 2 38 6 65 10 28 3 86 12 130 20 44 8 100 17 125 20 25 3 52 8 60 10 8
2 33 7 55 10 23 3 50 7 60 9 11 2 43 7 70 11 28 5 52 9 55 10 3 1 30 5 60 10
30 5 57 9 60 10 3 1 32 5 65 9 32 4 68 10 80 12 11 2 36 7 55 10 30 4 72 12
103 20 4 1 16 2 27 3 12 1 26 16 38 44 62 139 229 281 387 329 186 55 395 40
509 -37 20 -14 41 -25 45 -25 5 0 38 -30 74 -66 123 -123 191 -302 196 -511 5
-228 -123 -439 -329 -540 -84 -42 -193 -76 -280 -88 -77 -11 -242 -13 -305 -5
-33 5 -78 11 -100 14 -90 10 -249 57 -376 109 -73 30 -129 58 -244 121 -43 24
-112 70 -163 109 -29 22 -54 38 -56 36 -8 -10 -76 -120 -76 -123 0 -3 -17 -31
-38 -63 -21 -32 -42 -65 -46 -73 -8 -17 -21 -39 -57 -95 -28 -44 -63 -99 -189
-305 -46 -74 -109 -177 -142 -228 -32 -50 -58 -95 -58 -97 0 -3 -8 -18 -18
-33 -68 -99 -108 -169 -105 -179 4 -10 373 -13 1804 -13 l1800 0 107 108 c288
290 477 644 547 1025 8 45 17 96 21 112 10 49 13 434 3 510 -58 471 -210 847
-468 1155 -61 73 -206 218 -256 255 -22 16 -42 32 -45 35 -9 10 -110 80 -115
80 -2 0 -23 13 -47 29 -69 46 -234 125 -354 169 -130 48 -295 87 -444 107
-136 17 -520 12 -625 -9 -11 -2 -40 -7 -65 -11 -25 -4 -52 -9 -60 -11 -90 -21
-156 -39 -226 -64 -46 -16 -84 -26 -85 -22 -10 67 -14 677 -4 678 13 0 116 15
135 19 56 12 90 17 122 20 20 2 45 6 55 9 10 3 38 8 63 11 25 3 52 8 60 10 8
2 33 7 55 10 23 3 52 7 65 10 13 3 42 7 65 10 22 3 76 12 120 20 125 22 188
32 245 40 19 2 73 11 120 19 47 8 101 17 120 20 19 3 46 8 60 11 14 2 41 7 60
9 19 3 89 14 155 25 132 23 190 32 220 36 11 1 55 8 97 15 64 10 76 15 73 30
-2 10 -6 33 -9 51 -3 19 -13 77 -22 129 -9 52 -18 106 -19 120 -2 14 -11 70
-20 125 -9 55 -19 114 -21 130 -3 17 -7 36 -9 43 -4 9 -338 12 -1630 12
l-1625 0 -1 -137z"/>
</g>
</svg>
